<mxfile host="Electron" agent="Mozilla/5.0 (X11; Linux x86_64) AppleWebKit/537.36 (KHTML, like Gecko) draw.io/24.7.8 Chrome/128.0.6613.36 Electron/32.0.1 Safari/537.36" version="24.7.8">
  <diagram name="Page-1" id="8BhGWuq122RLwmOXoLMm">
    <mxGraphModel dx="989" dy="578" grid="1" gridSize="10" guides="1" tooltips="1" connect="1" arrows="1" fold="1" page="1" pageScale="1" pageWidth="827" pageHeight="1169" math="0" shadow="0">
      <root>
        <mxCell id="0" />
        <mxCell id="1" parent="0" />
        <mxCell id="qCZXIDQMM5qpmyemCmL8-6" value="" style="rounded=0;whiteSpace=wrap;html=1;" vertex="1" parent="1">
          <mxGeometry x="140" y="199" width="560" height="452" as="geometry" />
        </mxCell>
        <mxCell id="qCZXIDQMM5qpmyemCmL8-1" value="pull image" style="text;html=1;align=center;verticalAlign=middle;resizable=0;points=[];autosize=1;strokeColor=none;fillColor=none;" vertex="1" parent="1">
          <mxGeometry x="250" y="250" width="80" height="30" as="geometry" />
        </mxCell>
        <mxCell id="qCZXIDQMM5qpmyemCmL8-2" value="start container" style="text;html=1;align=center;verticalAlign=middle;resizable=0;points=[];autosize=1;strokeColor=none;fillColor=none;" vertex="1" parent="1">
          <mxGeometry x="310" y="290" width="100" height="30" as="geometry" />
        </mxCell>
        <mxCell id="qCZXIDQMM5qpmyemCmL8-3" value="update container" style="text;html=1;align=center;verticalAlign=middle;resizable=0;points=[];autosize=1;strokeColor=none;fillColor=none;" vertex="1" parent="1">
          <mxGeometry x="370" y="340" width="110" height="30" as="geometry" />
        </mxCell>
        <mxCell id="qCZXIDQMM5qpmyemCmL8-4" value="create image&lt;div&gt;&lt;br&gt;&lt;/div&gt;" style="text;html=1;align=center;verticalAlign=middle;resizable=0;points=[];autosize=1;strokeColor=none;fillColor=none;" vertex="1" parent="1">
          <mxGeometry x="324" y="450" width="90" height="40" as="geometry" />
        </mxCell>
        <mxCell id="qCZXIDQMM5qpmyemCmL8-5" value="scan image" style="text;html=1;align=center;verticalAlign=middle;resizable=0;points=[];autosize=1;strokeColor=none;fillColor=none;" vertex="1" parent="1">
          <mxGeometry x="380" y="490" width="80" height="30" as="geometry" />
        </mxCell>
        <mxCell id="qCZXIDQMM5qpmyemCmL8-7" value="stop container" style="text;html=1;align=center;verticalAlign=middle;resizable=0;points=[];autosize=1;strokeColor=none;fillColor=none;" vertex="1" parent="1">
          <mxGeometry x="314" y="370" width="100" height="30" as="geometry" />
        </mxCell>
        <mxCell id="qCZXIDQMM5qpmyemCmL8-8" value="delete image" style="text;html=1;align=center;verticalAlign=middle;resizable=0;points=[];autosize=1;strokeColor=none;fillColor=none;" vertex="1" parent="1">
          <mxGeometry x="324" y="530" width="90" height="30" as="geometry" />
        </mxCell>
        <mxCell id="qCZXIDQMM5qpmyemCmL8-9" value="delete image" style="text;html=1;align=center;verticalAlign=middle;resizable=0;points=[];autosize=1;strokeColor=none;fillColor=none;" vertex="1" parent="1">
          <mxGeometry x="250" y="410" width="90" height="30" as="geometry" />
        </mxCell>
      </root>
    </mxGraphModel>
  </diagram>
</mxfile>
